<svg width="1994" height="2392" viewBox="0 0 1994 2392" fill="none" xmlns="http://www.w3.org/2000/svg">
<rect x="532" y="742" width="997" height="691" fill="url(#paint0_linear_101_242)"/>
<line x1="1617" y1="628" x2="399" y2="628" stroke="#09BAE2" stroke-width="30"/>
<line x1="1631.75" y1="612.515" x2="1630" y2="1586.03" stroke="#09BAE2" stroke-width="30"/>
<line x1="413.77" y1="613.832" x2="413.756" y2="1553.53" stroke="#09BAE2" stroke-width="30"/>
<line x1="416.516" y1="637.37" x2="190.516" y2="482.37" stroke="#09BAE2" stroke-width="30"/>
<line x1="1620.18" y1="634.866" x2="1825.18" y2="485.866" stroke="#09BAE2" stroke-width="30"/>
<line x1="1263.95" y1="1569" x2="401.39" y2="1565.84" stroke="#09BAE2" stroke-width="30"/>
<line x1="1628.7" y1="1569" x2="1479.7" y2="1566" stroke="#09BAE2" stroke-width="30"/>
<line x1="1613.09" y1="1557.12" x2="1881.09" y2="1922.12" stroke="#09BAE2" stroke-width="30"/>
<line x1="111.94" y1="1932.66" x2="418.497" y2="1566.37" stroke="#09BAE2" stroke-width="30"/>
<line x1="117" y1="1916" x2="1888" y2="1916" stroke="#09BAE2" stroke-width="30"/>
<line x1="118" y1="1931" x2="118" y2="2262" stroke="#09BAE2" stroke-width="30"/>
<line x1="1888" y1="2277" x2="103" y2="2277" stroke="#09BAE2" stroke-width="30"/>
<line x1="1873" y1="2262" x2="1873" y2="1931" stroke="#09BAE2" stroke-width="30"/>
<rect x="526" y="745" width="1006" height="698" rx="42" stroke="#8559F9" stroke-width="30"/>
<rect x="199" y="115" width="1620" height="368" stroke="#09BAE2" stroke-width="30"/>
<path d="M763.283 1686.57C768.001 1689.65 769.441 1691.72 769.86 1692.5C769.441 1693.28 768.001 1695.35 763.283 1698.43C756.413 1702.91 745.481 1707.53 730.629 1711.63C701.138 1719.77 659.545 1725 613 1725C566.455 1725 524.862 1719.77 495.371 1711.63C480.519 1707.53 469.587 1702.91 462.717 1698.43C457.999 1695.35 456.559 1693.28 456.14 1692.5C456.559 1691.72 457.999 1689.65 462.717 1686.57C469.587 1682.09 480.519 1677.47 495.371 1673.37C524.862 1665.23 566.455 1660 613 1660C659.545 1660 701.138 1665.23 730.629 1673.37C745.481 1677.47 756.413 1682.09 763.283 1686.57Z" stroke="#FF0502" stroke-width="30"/>
<mask id="path-18-inside-1_101_242" fill="white">
<path d="M785 1740.5C785 1766.73 707.993 1788 613 1788C518.007 1788 441 1766.73 441 1740.5C441 1714.27 518.007 1767 613 1767C707.993 1767 785 1714.27 785 1740.5Z"/>
</mask>
<path d="M755 1740.5C755 1731.35 761.377 1729.76 755.082 1733.87C750.047 1737.16 740.777 1741.26 726.636 1745.17C698.78 1752.86 658.593 1758 613 1758V1818C662.4 1818 708.212 1812.5 742.608 1803.01C759.594 1798.31 775.513 1792.19 787.885 1784.11C798.997 1776.85 815 1762.77 815 1740.5H755ZM613 1758C567.407 1758 527.22 1752.86 499.364 1745.17C485.223 1741.26 475.953 1737.16 470.918 1733.87C464.623 1729.76 471 1731.35 471 1740.5H411C411 1762.77 427.003 1776.85 438.115 1784.11C450.487 1792.19 466.406 1798.31 483.392 1803.01C517.788 1812.5 563.6 1818 613 1818V1758ZM471 1740.5C471 1742.4 470.663 1746.46 468.1 1751.07C465.324 1756.05 461.186 1759.42 457.176 1761.29C451.035 1764.16 446.845 1762.78 450.236 1763.27C455.8 1764.07 465.227 1767.07 482.281 1772.5C513.436 1782.41 560.39 1797 613 1797V1737C570.618 1737 531.571 1725.22 500.474 1715.32C486.403 1710.85 470.64 1705.59 458.797 1703.88C453.484 1703.11 442.537 1701.92 431.813 1706.92C425.512 1709.86 419.626 1714.79 415.676 1721.88C411.938 1728.6 411 1735.32 411 1740.5H471ZM613 1797C665.61 1797 712.564 1782.41 743.719 1772.5C760.773 1767.07 770.2 1764.07 775.764 1763.27C779.155 1762.78 774.965 1764.16 768.824 1761.29C764.814 1759.42 760.676 1756.05 757.9 1751.07C755.337 1746.46 755 1742.4 755 1740.5H815C815 1735.32 814.062 1728.6 810.324 1721.88C806.374 1714.79 800.488 1709.86 794.187 1706.92C783.463 1701.92 772.516 1703.11 767.203 1703.88C755.36 1705.59 739.597 1710.85 725.526 1715.32C694.429 1725.22 655.382 1737 613 1737V1797Z" fill="#FF0502" mask="url(#path-18-inside-1_101_242)"/>
<path d="M1153.28 1686.57C1158 1689.65 1159.44 1691.72 1159.86 1692.5C1159.44 1693.28 1158 1695.35 1153.28 1698.43C1146.41 1702.91 1135.48 1707.53 1120.63 1711.63C1091.14 1719.77 1049.54 1725 1003 1725C956.455 1725 914.862 1719.77 885.371 1711.63C870.519 1707.53 859.587 1702.91 852.717 1698.43C847.999 1695.35 846.559 1693.28 846.14 1692.5C846.559 1691.72 847.999 1689.65 852.717 1686.57C859.587 1682.09 870.519 1677.47 885.371 1673.37C914.862 1665.23 956.455 1660 1003 1660C1049.54 1660 1091.14 1665.23 1120.63 1673.37C1135.48 1677.47 1146.41 1682.09 1153.28 1686.57Z" stroke="#18E200" stroke-width="30"/>
<mask id="path-21-inside-2_101_242" fill="white">
<path d="M1175 1740.5C1175 1766.73 1097.99 1788 1003 1788C908.007 1788 831 1766.73 831 1740.5C831 1714.27 908.007 1767 1003 1767C1097.99 1767 1175 1714.27 1175 1740.5Z"/>
</mask>
<path d="M1145 1740.5C1145 1731.35 1151.38 1729.76 1145.08 1733.87C1140.05 1737.16 1130.78 1741.26 1116.64 1745.17C1088.78 1752.86 1048.59 1758 1003 1758V1818C1052.4 1818 1098.21 1812.5 1132.61 1803.01C1149.59 1798.31 1165.51 1792.19 1177.88 1784.11C1189 1776.85 1205 1762.77 1205 1740.5H1145ZM1003 1758C957.407 1758 917.22 1752.86 889.364 1745.17C875.223 1741.26 865.953 1737.16 860.918 1733.87C854.623 1729.76 861 1731.35 861 1740.5H801C801 1762.77 817.003 1776.85 828.115 1784.11C840.487 1792.19 856.406 1798.31 873.392 1803.01C907.788 1812.5 953.6 1818 1003 1818V1758ZM861 1740.5C861 1742.4 860.663 1746.46 858.1 1751.07C855.324 1756.05 851.186 1759.42 847.176 1761.29C841.035 1764.16 836.845 1762.78 840.236 1763.27C845.8 1764.07 855.227 1767.07 872.281 1772.5C903.436 1782.41 950.39 1797 1003 1797V1737C960.618 1737 921.571 1725.22 890.474 1715.32C876.403 1710.85 860.64 1705.59 848.797 1703.88C843.484 1703.11 832.537 1701.92 821.813 1706.92C815.512 1709.86 809.626 1714.79 805.676 1721.88C801.938 1728.6 801 1735.32 801 1740.5H861ZM1003 1797C1055.61 1797 1102.56 1782.41 1133.72 1772.5C1150.77 1767.07 1160.2 1764.07 1165.76 1763.27C1169.15 1762.78 1164.97 1764.16 1158.82 1761.29C1154.81 1759.42 1150.68 1756.05 1147.9 1751.07C1145.34 1746.46 1145 1742.4 1145 1740.5H1205C1205 1735.32 1204.06 1728.6 1200.32 1721.88C1196.37 1714.79 1190.49 1709.86 1184.19 1706.92C1173.46 1701.92 1162.52 1703.11 1157.2 1703.88C1145.36 1705.59 1129.6 1710.85 1115.53 1715.32C1084.43 1725.22 1045.38 1737 1003 1737V1797Z" fill="#18E200" mask="url(#path-21-inside-2_101_242)"/>
<circle cx="1373.5" cy="1572.5" r="55.5" stroke="#FF0502" stroke-width="30"/>
<path d="M1440.23 1669.38L1477.34 1791.21C1483.38 1811.05 1472.2 1832.03 1452.36 1838.07C1432.53 1844.11 1411.55 1832.93 1405.51 1813.09L1367.44 1688.12C1365.66 1682.27 1371.39 1676.93 1377.1 1679.11C1392.21 1684.89 1409.32 1680.3 1419.49 1667.72L1421.15 1665.66C1426.7 1658.81 1437.66 1660.94 1440.23 1669.38Z" stroke="#8559F9" stroke-width="30"/>
<g filter="url(#filter0_f_101_242)">
<line x1="1617" y1="628" x2="399" y2="628" stroke="#09BAE2" stroke-width="30"/>
<line x1="1631.75" y1="612.515" x2="1630" y2="1586.03" stroke="#09BAE2" stroke-width="30"/>
<line x1="413.77" y1="613.832" x2="413.756" y2="1553.53" stroke="#09BAE2" stroke-width="30"/>
<line x1="416.516" y1="637.37" x2="190.516" y2="482.37" stroke="#09BAE2" stroke-width="30"/>
<line x1="1620.18" y1="634.866" x2="1825.18" y2="485.866" stroke="#09BAE2" stroke-width="30"/>
<line x1="1263.95" y1="1569" x2="401.39" y2="1565.84" stroke="#09BAE2" stroke-width="30"/>
<line x1="1628.7" y1="1569" x2="1479.7" y2="1566" stroke="#09BAE2" stroke-width="30"/>
<line x1="1613.09" y1="1557.12" x2="1881.09" y2="1922.12" stroke="#09BAE2" stroke-width="30"/>
<line x1="111.94" y1="1932.66" x2="418.497" y2="1566.37" stroke="#09BAE2" stroke-width="30"/>
<line x1="117" y1="1916" x2="1888" y2="1916" stroke="#09BAE2" stroke-width="30"/>
<line x1="118" y1="1931" x2="118" y2="2262" stroke="#09BAE2" stroke-width="30"/>
<line x1="1888" y1="2277" x2="103" y2="2277" stroke="#09BAE2" stroke-width="30"/>
<line x1="1873" y1="2262" x2="1873" y2="1931" stroke="#09BAE2" stroke-width="30"/>
<rect x="526" y="745" width="1006" height="698" rx="42" stroke="#8559F9" stroke-width="30"/>
<rect x="199" y="115" width="1620" height="368" stroke="#09BAE2" stroke-width="30"/>
<path d="M763.283 1686.57C768.001 1689.65 769.441 1691.72 769.86 1692.5C769.441 1693.28 768.001 1695.35 763.283 1698.43C756.413 1702.91 745.481 1707.53 730.629 1711.63C701.138 1719.77 659.545 1725 613 1725C566.455 1725 524.862 1719.77 495.371 1711.63C480.519 1707.53 469.587 1702.91 462.717 1698.43C457.999 1695.35 456.559 1693.28 456.14 1692.5C456.559 1691.72 457.999 1689.65 462.717 1686.57C469.587 1682.09 480.519 1677.47 495.371 1673.37C524.862 1665.23 566.455 1660 613 1660C659.545 1660 701.138 1665.23 730.629 1673.37C745.481 1677.47 756.413 1682.09 763.283 1686.57Z" stroke="#FF0502" stroke-width="30"/>
<mask id="path-41-inside-3_101_242" fill="white">
<path d="M785 1740.5C785 1766.73 707.993 1788 613 1788C518.007 1788 441 1766.73 441 1740.5C441 1714.27 518.007 1767 613 1767C707.993 1767 785 1714.27 785 1740.5Z"/>
</mask>
<path d="M755 1740.5C755 1731.35 761.377 1729.76 755.082 1733.87C750.047 1737.16 740.777 1741.26 726.636 1745.17C698.78 1752.86 658.593 1758 613 1758V1818C662.4 1818 708.212 1812.5 742.608 1803.01C759.594 1798.31 775.513 1792.19 787.885 1784.11C798.997 1776.85 815 1762.77 815 1740.5H755ZM613 1758C567.407 1758 527.22 1752.86 499.364 1745.17C485.223 1741.26 475.953 1737.16 470.918 1733.87C464.623 1729.76 471 1731.35 471 1740.5H411C411 1762.77 427.003 1776.85 438.115 1784.11C450.487 1792.19 466.406 1798.31 483.392 1803.01C517.788 1812.5 563.6 1818 613 1818V1758ZM471 1740.5C471 1742.4 470.663 1746.46 468.1 1751.07C465.324 1756.05 461.186 1759.42 457.176 1761.29C451.035 1764.16 446.845 1762.78 450.236 1763.27C455.8 1764.07 465.227 1767.07 482.281 1772.5C513.436 1782.41 560.39 1797 613 1797V1737C570.618 1737 531.571 1725.22 500.474 1715.32C486.403 1710.85 470.64 1705.59 458.797 1703.88C453.484 1703.11 442.537 1701.92 431.813 1706.92C425.512 1709.86 419.626 1714.79 415.676 1721.88C411.938 1728.6 411 1735.32 411 1740.5H471ZM613 1797C665.61 1797 712.564 1782.41 743.719 1772.5C760.773 1767.07 770.2 1764.07 775.764 1763.27C779.155 1762.78 774.965 1764.16 768.824 1761.29C764.814 1759.42 760.676 1756.05 757.9 1751.07C755.337 1746.46 755 1742.4 755 1740.5H815C815 1735.32 814.062 1728.6 810.324 1721.88C806.374 1714.79 800.488 1709.86 794.187 1706.92C783.463 1701.92 772.516 1703.11 767.203 1703.88C755.36 1705.59 739.597 1710.85 725.526 1715.32C694.429 1725.22 655.382 1737 613 1737V1797Z" fill="#FF0502" mask="url(#path-41-inside-3_101_242)"/>
<path d="M1153.28 1686.57C1158 1689.65 1159.44 1691.72 1159.86 1692.5C1159.44 1693.28 1158 1695.35 1153.28 1698.43C1146.41 1702.91 1135.48 1707.53 1120.63 1711.63C1091.14 1719.77 1049.54 1725 1003 1725C956.455 1725 914.862 1719.77 885.371 1711.63C870.519 1707.53 859.587 1702.91 852.717 1698.43C847.999 1695.35 846.559 1693.28 846.14 1692.5C846.559 1691.72 847.999 1689.65 852.717 1686.57C859.587 1682.09 870.519 1677.47 885.371 1673.37C914.862 1665.23 956.455 1660 1003 1660C1049.54 1660 1091.14 1665.23 1120.63 1673.37C1135.48 1677.47 1146.41 1682.09 1153.28 1686.57Z" stroke="#18E200" stroke-width="30"/>
<mask id="path-44-inside-4_101_242" fill="white">
<path d="M1175 1740.5C1175 1766.73 1097.99 1788 1003 1788C908.007 1788 831 1766.73 831 1740.5C831 1714.27 908.007 1767 1003 1767C1097.99 1767 1175 1714.27 1175 1740.5Z"/>
</mask>
<path d="M1145 1740.5C1145 1731.35 1151.38 1729.76 1145.08 1733.87C1140.05 1737.16 1130.78 1741.26 1116.64 1745.17C1088.78 1752.86 1048.59 1758 1003 1758V1818C1052.4 1818 1098.21 1812.5 1132.61 1803.01C1149.59 1798.31 1165.51 1792.19 1177.88 1784.11C1189 1776.85 1205 1762.77 1205 1740.5H1145ZM1003 1758C957.407 1758 917.22 1752.86 889.364 1745.17C875.223 1741.26 865.953 1737.16 860.918 1733.87C854.623 1729.76 861 1731.35 861 1740.5H801C801 1762.77 817.003 1776.85 828.115 1784.11C840.487 1792.19 856.406 1798.31 873.392 1803.01C907.788 1812.5 953.6 1818 1003 1818V1758ZM861 1740.5C861 1742.4 860.663 1746.46 858.1 1751.07C855.324 1756.05 851.186 1759.42 847.176 1761.29C841.035 1764.16 836.845 1762.78 840.236 1763.27C845.8 1764.07 855.227 1767.07 872.281 1772.5C903.436 1782.41 950.39 1797 1003 1797V1737C960.618 1737 921.571 1725.22 890.474 1715.32C876.403 1710.85 860.64 1705.59 848.797 1703.88C843.484 1703.11 832.537 1701.92 821.813 1706.92C815.512 1709.86 809.626 1714.79 805.676 1721.88C801.938 1728.6 801 1735.32 801 1740.5H861ZM1003 1797C1055.61 1797 1102.56 1782.41 1133.72 1772.5C1150.77 1767.07 1160.2 1764.07 1165.76 1763.27C1169.15 1762.78 1164.97 1764.16 1158.82 1761.29C1154.81 1759.42 1150.68 1756.05 1147.9 1751.07C1145.34 1746.46 1145 1742.4 1145 1740.5H1205C1205 1735.32 1204.06 1728.6 1200.32 1721.88C1196.37 1714.79 1190.49 1709.86 1184.19 1706.92C1173.46 1701.92 1162.52 1703.11 1157.2 1703.88C1145.36 1705.59 1129.6 1710.85 1115.53 1715.32C1084.43 1725.22 1045.38 1737 1003 1737V1797Z" fill="#18E200" mask="url(#path-44-inside-4_101_242)"/>
<circle cx="1373.5" cy="1572.5" r="55.5" stroke="#FF0502" stroke-width="30"/>
<path d="M1440.23 1669.38L1477.34 1791.21C1483.38 1811.05 1472.2 1832.03 1452.36 1838.07C1432.53 1844.11 1411.55 1832.93 1405.51 1813.09L1367.44 1688.12C1365.66 1682.27 1371.39 1676.93 1377.1 1679.11C1392.21 1684.89 1409.32 1680.3 1419.49 1667.72L1421.15 1665.66C1426.7 1658.81 1437.66 1660.94 1440.23 1669.38Z" stroke="#8559F9" stroke-width="30"/>
</g>
<defs>
<filter id="filter0_f_101_242" x="0.4375" y="0" width="1992.74" height="2392" filterUnits="userSpaceOnUse" color-interpolation-filters="sRGB">
<feFlood flood-opacity="0" result="BackgroundImageFix"/>
<feBlend mode="normal" in="SourceGraphic" in2="BackgroundImageFix" result="shape"/>
<feGaussianBlur stdDeviation="50" result="effect1_foregroundBlur_101_242"/>
</filter>
<linearGradient id="paint0_linear_101_242" x1="1030.5" y1="742" x2="1030.5" y2="1433" gradientUnits="userSpaceOnUse">
<stop/>
<stop offset="1" stop-color="#381F7B"/>
</linearGradient>
</defs>
</svg>
